<svg width="25" height="24" viewBox="0 0 25 24" fill="none" xmlns="http://www.w3.org/2000/svg">
<g clip-path="url(#clip0_2991_3604)">
<path d="M16.543 14H8.457C7.14281 14.0016 5.8829 14.5244 4.95363 15.4536C4.02435 16.3829 3.50159 17.6428 3.5 18.957V24H21.5V18.957C21.4984 17.6428 20.9756 16.3829 20.0464 15.4536C19.1171 14.5244 17.8572 14.0016 16.543 14Z" fill="#E55005"/>
<path d="M12.5 12C15.8137 12 18.5 9.31371 18.5 6C18.5 2.68629 15.8137 0 12.5 0C9.18629 0 6.5 2.68629 6.5 6C6.5 9.31371 9.18629 12 12.5 12Z" fill="#E55005"/>
<!-- <path d="M16.543 14H8.457C7.14281 14.0016 5.8829 14.5244 4.95363 15.4536C4.02435 16.3829 3.50159 17.6428 3.5 18.957V24H21.5V18.957C21.4984 17.6428 20.9756 16.3829 20.0464 15.4536C19.1171 14.5244 17.8572 14.0016 16.543 14Z" stroke="#000" stroke-width="2" fill="none"/>
<path d="M12.5 12C15.8137 12 18.5 9.31371 18.5 6C18.5 2.68629 15.8137 0 12.5 0C9.18629 0 6.5 2.68629 6.5 6C6.5 9.31371 9.18629 12 12.5 12Z" stroke="#000" stroke-width="2" fill="none"/> -->
</g>
<defs>
<clipPath id="clip0_2991_3604">
<rect width="24" height="24" fill="white" transform="translate(0.5)"/>
</clipPath>
</defs>
</svg>
