<svg width="32" height="32" viewBox="0 0 32 32" fill="none" xmlns="http://www.w3.org/2000/svg">
<path d="M15.125 5.15817C15.125 5.64117 15.517 6.03317 16 6.03317C16.483 6.03317 16.875 5.64117 16.875 5.15817V2.875C16.875 2.392 16.483 2 16 2C15.517 2 15.125 2.392 15.125 2.875V5.15817Z" fill="#FEB902"/>
<path fill-rule="evenodd" clip-rule="evenodd" d="M19.5 25.3683C19.5 25.1583 19.5234 24.96 19.5584 24.7617L19.5563 24.7607C19.7216 23.8767 20.2443 23.0446 21.0458 22.4143C23.0292 20.8545 24.1667 18.5177 24.1667 16C24.1667 13.529 23.0665 11.2178 21.1485 9.65917C19.2282 8.09817 16.7105 7.49851 14.2488 8.01651C11.1537 8.66401 8.6465 11.1805 8.01066 14.2792C7.36083 17.442 8.54033 20.599 11.0895 22.5182C11.7783 23.0368 12.2506 23.8421 12.4252 24.7587L12.4204 24.7607L12.4184 24.7617C12.4491 24.8968 12.4701 25.0353 12.4831 25.1752C12.4943 25.3012 12.5 25.4287 12.5 25.5573V27.6153L12.5001 27.6462C12.5037 28.1541 12.6105 28.5753 12.7856 28.9141C13.1667 29.6533 13.8715 30 14.5417 30H17.4583C18.5524 30 19.4481 29.1352 19.4978 28.0532C19.4993 28.0218 19.5 27.9901 19.5 27.9583V25.3683ZM20.3749 16.5833C19.8919 16.5833 19.4999 16.1913 19.4999 15.7083C19.4999 13.9385 18.0614 12.5 16.2916 12.5C15.8086 12.5 15.4166 12.108 15.4166 11.625C15.4166 11.142 15.8086 10.75 16.2916 10.75C19.0251 10.75 21.2499 12.9748 21.2499 15.7083C21.2499 16.1913 20.8579 16.5833 20.3749 16.5833ZM18.625 26.5H13.375C12.892 26.5 12.5 26.108 12.5 25.625C12.5 25.142 12.892 24.75 13.375 24.75H18.625C19.108 24.75 19.5 25.142 19.5 25.625C19.5 26.108 19.108 26.5 18.625 26.5Z" fill="#FEB902"/>
<path d="M23.6661 9.20883C23.4421 9.20883 23.2181 9.12367 23.0477 8.95217C22.7059 8.61033 22.7059 8.05617 23.0477 7.71433L24.6624 6.09967C25.0042 5.75783 25.5584 5.75783 25.9002 6.09967C26.2421 6.4415 26.2421 6.99567 25.9002 7.3375L24.2856 8.95217C24.1141 9.1225 23.8901 9.20883 23.6661 9.20883Z" fill="#FEB902"/>
<path d="M26.8418 16.875H29.125C29.608 16.875 30 16.483 30 16C30 15.517 29.608 15.125 29.125 15.125H26.8418C26.3588 15.125 25.9668 15.517 25.9668 16C25.9668 16.483 26.3588 16.875 26.8418 16.875Z" fill="#FEB902"/>
<path d="M25.2807 26.1558C25.0567 26.1558 24.8327 26.0707 24.6624 25.8992L23.0477 24.2845C22.7059 23.9427 22.7059 23.3885 23.0477 23.0467C23.3896 22.7048 23.9437 22.7048 24.2856 23.0467L25.9002 24.6613C26.2421 25.0032 26.2421 25.5573 25.9002 25.8992C25.7287 26.0707 25.5047 26.1558 25.2807 26.1558Z" fill="#FEB902"/>
<path d="M6.1008 25.8992C6.27113 26.0707 6.49513 26.1558 6.71913 26.1558C6.94313 26.1558 7.16713 26.0707 7.33863 25.8992L8.9533 24.2845C9.29513 23.9427 9.29513 23.3885 8.9533 23.0467C8.61147 22.7048 8.0573 22.7048 7.71547 23.0467L6.1008 24.6613C5.75897 25.0032 5.75897 25.5573 6.1008 25.8992Z" fill="#FEB902"/>
<path d="M5.15817 16.875H2.875C2.392 16.875 2 16.483 2 16C2 15.517 2.392 15.125 2.875 15.125H5.15817C5.64117 15.125 6.03317 15.517 6.03317 16C6.03317 16.483 5.64117 16.875 5.15817 16.875Z" fill="#FEB902"/>
<path d="M7.71547 8.95217C7.8858 9.12367 8.1098 9.20883 8.3338 9.20883C8.5578 9.20883 8.78063 9.1225 8.9533 8.95217C9.29513 8.61033 9.29513 8.05617 8.9533 7.71433L7.33863 6.09967C6.9968 5.75783 6.44263 5.75783 6.1008 6.09967C5.75897 6.4415 5.75897 6.99567 6.1008 7.3375L7.71547 8.95217Z" fill="#FEB902"/>
<mask id="mask0_1351_119723" style="mask-type:luminance" maskUnits="userSpaceOnUse" x="2" y="2" width="28" height="28">
<path fill-rule="evenodd" clip-rule="evenodd" d="M15.125 5.15817C15.125 5.64117 15.517 6.03317 16 6.03317C16.483 6.03317 16.875 5.64117 16.875 5.15817V2.875C16.875 2.392 16.483 2 16 2C15.517 2 15.125 2.392 15.125 2.875V5.15817ZM19.5 25.3683C19.5 25.1583 19.5234 24.96 19.5584 24.7617L19.5563 24.7607C19.7216 23.8767 20.2443 23.0446 21.0458 22.4143C23.0292 20.8545 24.1667 18.5177 24.1667 16C24.1667 13.529 23.0665 11.2178 21.1485 9.65917C19.2282 8.09817 16.7105 7.49851 14.2488 8.01651C11.1537 8.66401 8.6465 11.1805 8.01066 14.2792C7.36083 17.442 8.54033 20.599 11.0895 22.5182C11.7783 23.0368 12.2506 23.8421 12.4252 24.7587C12.4236 24.7593 12.422 24.76 12.4204 24.7607C12.4197 24.761 12.419 24.7613 12.4184 24.7617C12.4491 24.8968 12.4701 25.0353 12.4831 25.1752C12.4943 25.3012 12.5 25.4287 12.5 25.5573V27.6153L12.5001 27.6462C12.5037 28.1541 12.6105 28.5753 12.7856 28.9141C13.1667 29.6533 13.8715 30 14.5417 30H17.4583C18.5524 30 19.4481 29.1352 19.4978 28.0532C19.4993 28.0218 19.5 27.9901 19.5 27.9583V25.3683ZM23.6661 9.20883C23.4421 9.20883 23.2181 9.12367 23.0477 8.95217C22.7059 8.61033 22.7059 8.05617 23.0477 7.71433L24.6624 6.09967C25.0042 5.75783 25.5584 5.75783 25.9002 6.09967C26.2421 6.4415 26.2421 6.99567 25.9002 7.3375L24.2856 8.95217C24.1141 9.1225 23.8901 9.20883 23.6661 9.20883ZM26.8418 16.875H29.125C29.608 16.875 30 16.483 30 16C30 15.517 29.608 15.125 29.125 15.125H26.8418C26.3588 15.125 25.9668 15.517 25.9668 16C25.9668 16.483 26.3588 16.875 26.8418 16.875ZM25.2807 26.1558C25.0567 26.1558 24.8327 26.0707 24.6624 25.8992L23.0477 24.2845C22.7059 23.9427 22.7059 23.3885 23.0477 23.0467C23.3896 22.7048 23.9437 22.7048 24.2856 23.0467L25.9002 24.6613C26.2421 25.0032 26.2421 25.5573 25.9002 25.8992C25.7287 26.0707 25.5047 26.1558 25.2807 26.1558ZM6.1008 25.8992C6.27113 26.0707 6.49513 26.1558 6.71913 26.1558C6.94313 26.1558 7.16713 26.0707 7.33863 25.8992L8.9533 24.2845C9.29513 23.9427 9.29513 23.3885 8.9533 23.0467C8.61147 22.7048 8.0573 22.7048 7.71547 23.0467L6.1008 24.6613C5.75897 25.0032 5.75897 25.5573 6.1008 25.8992ZM5.15817 16.875H2.875C2.392 16.875 2 16.483 2 16C2 15.517 2.392 15.125 2.875 15.125H5.15817C5.64117 15.125 6.03317 15.517 6.03317 16C6.03317 16.483 5.64117 16.875 5.15817 16.875ZM7.71547 8.95217C7.8858 9.12367 8.1098 9.20883 8.3338 9.20883C8.5578 9.20883 8.78063 9.1225 8.9533 8.95217C9.29513 8.61033 9.29513 8.05617 8.9533 7.71433L7.33863 6.09967C6.9968 5.75783 6.44263 5.75783 6.1008 6.09967C5.75897 6.4415 5.75897 6.99567 6.1008 7.3375L7.71547 8.95217ZM20.3749 16.5833C19.8919 16.5833 19.4999 16.1913 19.4999 15.7083C19.4999 13.9385 18.0614 12.5 16.2916 12.5C15.8086 12.5 15.4166 12.108 15.4166 11.625C15.4166 11.142 15.8086 10.75 16.2916 10.75C19.0251 10.75 21.2499 12.9748 21.2499 15.7083C21.2499 16.1913 20.8579 16.5833 20.3749 16.5833ZM18.625 26.5H13.375C12.892 26.5 12.5 26.108 12.5 25.625C12.5 25.142 12.892 24.75 13.375 24.75H18.625C19.108 24.75 19.5 25.142 19.5 25.625C19.5 26.108 19.108 26.5 18.625 26.5Z" fill="white"/>
</mask>
<g mask="url(#mask0_1351_119723)">
<path fill-rule="evenodd" clip-rule="evenodd" d="M35.0047 20.0034C35.0047 20.0034 33.944 25.2609 28.7101 20.1128C23.4762 14.9647 18.4529 19.7966 15.7726 17.4175C13.0923 15.0383 11.2195 8.18115 15.082 4.26485C18.9445 0.348546 20.8652 -2.90584 26.21 -0.0918509C31.5548 2.72214 38.446 -3.87307 38.4352 2.80299C38.4243 9.47905 35.0047 20.0034 35.0047 20.0034Z" fill="#FFD000"/>
</g>
</svg>
