<svg width="22" height="20" viewBox="0 0 22 20" fill="none" xmlns="http://www.w3.org/2000/svg">
<path fill-rule="evenodd" clip-rule="evenodd" d="M19.0915 18.8845C19.6406 18.8845 20.109 18.6826 20.4966 18.2788C20.8843 17.8751 21.0781 17.3986 21.0781 16.8495V4.73639C21.0781 4.18726 20.8843 3.71082 20.4966 3.30705C20.109 2.90328 19.6406 2.70139 19.0915 2.70139H15.8694L14.0282 0.714844H7.9717L6.13051 2.70139H2.90842C2.3593 2.70139 1.89092 2.90328 1.5033 3.30705C1.11568 3.71082 0.921875 4.18726 0.921875 4.73639V16.8495C0.921875 17.3986 1.11568 17.8751 1.5033 18.2788C1.89092 18.6826 2.3593 18.8845 2.90842 18.8845H19.0915ZM11 15.8562C10.0794 15.8562 9.23146 15.6301 8.45622 15.1779C7.68098 14.7257 7.06725 14.1119 6.61503 13.3367C6.16281 12.5615 5.9367 11.7136 5.9367 10.793C5.9367 9.87236 6.16281 9.02444 6.61503 8.24921C7.06725 7.47397 7.68098 6.86024 8.45622 6.40802C9.23146 5.95579 10.0794 5.72968 11 5.72968C11.9206 5.72968 12.7685 5.95579 13.5437 6.40802C14.319 6.86024 14.9327 7.47397 15.3849 8.24921C15.8371 9.02444 16.0632 9.87236 16.0632 10.793C16.0632 11.7136 15.8371 12.5615 15.3849 13.3367C14.9327 14.1119 14.319 14.7257 13.5437 15.1779C12.7685 15.6301 11.9206 15.8562 11 15.8562ZM12.611 13.579C12.1184 13.8697 11.5814 14.0151 11 14.0151C10.4185 14.0151 9.88153 13.8697 9.38893 13.579C8.89634 13.2883 8.50468 12.8966 8.21396 12.404C7.92325 11.9114 7.77789 11.3744 7.77789 10.793C7.77789 10.2116 7.92325 9.67454 8.21396 9.18194C8.50468 8.68934 8.89634 8.29768 9.38893 8.00697C9.88153 7.71625 10.4185 7.5709 11 7.5709C11.5814 7.5709 12.1184 7.71625 12.611 8.00697C13.1036 8.29768 13.4953 8.68934 13.786 9.18194C14.0767 9.67454 14.2221 10.2116 14.2221 10.793C14.2221 11.3744 14.0767 11.9114 13.786 12.404C13.4953 12.8966 13.1036 13.2883 12.611 13.579Z" fill="#2680EB"/>
<mask id="mask0_1351_119783" style="mask-type:alpha" maskUnits="userSpaceOnUse" x="0" y="0" width="22" height="19">
<path fill-rule="evenodd" clip-rule="evenodd" d="M19.0915 18.8845C19.6406 18.8845 20.109 18.6826 20.4966 18.2788C20.8843 17.8751 21.0781 17.3986 21.0781 16.8495V4.73639C21.0781 4.18726 20.8843 3.71082 20.4966 3.30705C20.109 2.90328 19.6406 2.70139 19.0915 2.70139H15.8694L14.0282 0.714844H7.9717L6.13051 2.70139H2.90842C2.3593 2.70139 1.89092 2.90328 1.5033 3.30705C1.11568 3.71082 0.921875 4.18726 0.921875 4.73639V16.8495C0.921875 17.3986 1.11568 17.8751 1.5033 18.2788C1.89092 18.6826 2.3593 18.8845 2.90842 18.8845H19.0915ZM11 15.8562C10.0794 15.8562 9.23146 15.6301 8.45622 15.1779C7.68098 14.7257 7.06725 14.1119 6.61503 13.3367C6.16281 12.5615 5.9367 11.7136 5.9367 10.793C5.9367 9.87236 6.16281 9.02444 6.61503 8.24921C7.06725 7.47397 7.68098 6.86024 8.45622 6.40802C9.23146 5.95579 10.0794 5.72968 11 5.72968C11.9206 5.72968 12.7685 5.95579 13.5437 6.40802C14.319 6.86024 14.9327 7.47397 15.3849 8.24921C15.8371 9.02444 16.0632 9.87236 16.0632 10.793C16.0632 11.7136 15.8371 12.5615 15.3849 13.3367C14.9327 14.1119 14.319 14.7257 13.5437 15.1779C12.7685 15.6301 11.9206 15.8562 11 15.8562ZM12.611 13.579C12.1184 13.8697 11.5814 14.0151 11 14.0151C10.4185 14.0151 9.88153 13.8697 9.38893 13.579C8.89634 13.2883 8.50468 12.8966 8.21396 12.404C7.92325 11.9114 7.77789 11.3744 7.77789 10.793C7.77789 10.2116 7.92325 9.67454 8.21396 9.18194C8.50468 8.68934 8.89634 8.29768 9.38893 8.00697C9.88153 7.71625 10.4185 7.5709 11 7.5709C11.5814 7.5709 12.1184 7.71625 12.611 8.00697C13.1036 8.29768 13.4953 8.68934 13.786 9.18194C14.0767 9.67454 14.2221 10.2116 14.2221 10.793C14.2221 11.3744 14.0767 11.9114 13.786 12.404C13.4953 12.8966 13.1036 13.2883 12.611 13.579Z" fill="#8800A6"/>
</mask>
<g mask="url(#mask0_1351_119783)">
<path fill-rule="evenodd" clip-rule="evenodd" d="M-0.186534 28.2494C-0.186534 28.2494 2.66567 32.0756 7.46378 32.1211C12.2619 32.1674 16.1313 29.3434 19.6398 26.7074C23.1483 24.0715 24.26 19.7787 22.4501 16.3001C20.6402 12.8214 17.4503 14.1006 13.57 11.715C9.6898 9.32938 8.99258 8.04675 4.53108 8.37336C0.0695809 8.69996 -3.5626 14.0091 -3.33202 19.8554C-3.10147 25.7024 -0.186534 28.2494 -0.186534 28.2494Z" fill="#2680EB"/>
</g>
</svg>
