<svg width="20" height="16" viewBox="0 0 20 16" fill="none" xmlns="http://www.w3.org/2000/svg">
<path fill-rule="evenodd" clip-rule="evenodd" d="M3.25587 12.7466C2.97622 12.821 2.67585 12.8742 2.36513 12.9167H2.33406C2.1787 12.9167 2.03369 12.7891 2.00262 12.6084C1.96577 12.4287 2.06822 12.3078 2.17149 12.1861C2.18432 12.1709 2.19717 12.1558 2.20977 12.1405C2.27429 12.0658 2.34013 11.9924 2.40666 11.9182C2.75665 11.5282 3.12569 11.1169 3.42159 10.3753C1.74368 9.37573 0.666504 7.83385 0.666504 6.11119C0.666504 3.10186 3.92911 0.666748 7.95817 0.666748C11.9872 0.666748 15.2498 3.10186 15.2498 6.11119C15.2498 9.12052 11.9872 11.5556 7.95817 11.5556C7.32636 11.5556 6.71527 11.4918 6.13525 11.3855C5.27558 12.0129 4.30198 12.4701 3.25587 12.7466ZM17.9894 14.9575C17.9478 15.1379 17.7915 15.2681 17.6248 15.248C17.3123 15.208 17.0103 15.1579 16.729 15.0878C15.6769 14.8273 14.6978 14.3966 13.8332 13.8056C13.2498 13.9057 12.6353 13.9658 11.9998 13.9658C10.1144 13.9658 8.38525 13.465 7.08317 12.6436C7.38525 12.6636 7.69775 12.6837 7.99984 12.6837C10.2394 12.6837 12.354 12.0626 13.9686 10.9407C15.7082 9.71858 16.6665 8.06575 16.6665 6.27269C16.6665 5.75179 16.5832 5.24092 16.4269 4.75008C18.1873 5.68167 19.3332 7.16421 19.3332 8.83707C19.3332 10.4699 18.2498 11.9123 16.5623 12.8539C16.8599 13.5526 17.2311 13.94 17.5831 14.3074C17.65 14.3773 17.7162 14.4464 17.7811 14.5168C17.7938 14.5312 17.8067 14.5455 17.8196 14.5597C17.9234 14.6744 18.0265 14.7883 17.9894 14.9575Z" fill="currentColor"/>
<mask id="mask0_2991_3496" style="mask-type:luminance" maskUnits="userSpaceOnUse" x="0" y="0" width="20" height="16">
<path fill-rule="evenodd" clip-rule="evenodd" d="M3.25587 12.7466C2.97622 12.821 2.67585 12.8742 2.36513 12.9167H2.33406C2.1787 12.9167 2.03369 12.7891 2.00262 12.6084C1.96577 12.4287 2.06822 12.3079 2.17149 12.1861C2.18432 12.1709 2.19717 12.1558 2.20977 12.1405C2.27429 12.0658 2.34013 11.9924 2.40666 11.9182C2.75665 11.5282 3.12569 11.1169 3.42159 10.3753C1.74368 9.37573 0.666504 7.83385 0.666504 6.11119C0.666504 3.10186 3.92911 0.666748 7.95817 0.666748C11.9872 0.666748 15.2498 3.10186 15.2498 6.11119C15.2498 9.12052 11.9872 11.5556 7.95817 11.5556C7.32636 11.5556 6.71527 11.4918 6.13525 11.3855C5.27558 12.0129 4.30198 12.4701 3.25587 12.7466ZM17.9894 14.9575C17.9478 15.1379 17.7915 15.2681 17.6248 15.248C17.3123 15.208 17.0103 15.1579 16.729 15.0878C15.6769 14.8273 14.6978 14.3966 13.8332 13.8056C13.2498 13.9057 12.6353 13.9659 11.9998 13.9659C10.1144 13.9659 8.38525 13.465 7.08317 12.6436C7.38525 12.6636 7.69775 12.6837 7.99984 12.6837C10.2394 12.6837 12.354 12.0626 13.9686 10.9407C15.7082 9.71858 16.6665 8.06575 16.6665 6.27269C16.6665 5.7518 16.5832 5.24092 16.4269 4.75008C18.1873 5.68168 19.3332 7.16421 19.3332 8.83708C19.3332 10.4699 18.2498 11.9123 16.5623 12.8539C16.8599 13.5526 17.2311 13.94 17.5831 14.3074C17.65 14.3773 17.7162 14.4464 17.7811 14.5168C17.7938 14.5312 17.8067 14.5455 17.8196 14.5597C17.9234 14.6745 18.0265 14.7883 17.9894 14.9575Z" fill="white"/>
</mask>
<g mask="url(#mask0_2991_3496)">
<path fill-rule="evenodd" clip-rule="evenodd" d="M14.618 4.78737C14.618 4.78737 9.49272 3.91007 9.49272 4.78737C9.49272 5.66467 7.1626 6.10545 4.77443 6.10545C4.18511 6.10545 1.2247 6.10545 1.2247 4.78737C1.2247 2.3484 -2.09086 -1.10976 0.631645 -3.87021C3.35415 -6.63066 4.708 -8.92454 8.47535 -6.94108C12.2427 -4.95761 17.1 -9.60631 17.0924 -4.90061C17.0847 -0.194922 14.618 4.78737 14.618 4.78737Z" fill="currentColor"/>
<path fill-rule="evenodd" clip-rule="evenodd" d="M13.1434 24.6503C13.1434 24.6503 12.3956 28.3562 8.70648 24.7275C5.01731 21.0988 1.47658 24.5046 -0.412642 22.8276C-2.30186 21.1507 -3.62191 16.3173 -0.899413 13.5569C1.82309 10.7964 3.17695 8.50253 6.94429 10.486C10.7116 12.4695 15.569 7.82077 15.5613 12.5265C15.5537 17.2322 13.1434 24.6503 13.1434 24.6503Z" fill="currentColor"/>
</g>
</svg>
