<svg width="12" height="12" viewBox="0 0 12 12" fill="none" xmlns="http://www.w3.org/2000/svg">
<path d="M1.83652 0.232776C1.38793 -0.108629 0.7449 -0.0744884 0.335205 0.335198C-0.111735 0.782128 -0.111735 1.50675 0.335205 1.95368L4.38161 6L0.335205 10.0463L0.232781 10.1635C-0.108631 10.6121 -0.07449 11.2551 0.335205 11.6648C0.782145 12.1117 1.50678 12.1117 1.95372 11.6648L6.00013 7.61848L10.0463 11.6646L10.1635 11.767C10.6121 12.1084 11.2551 12.0742 11.6648 11.6645C12.1117 11.2176 12.1117 10.493 11.6648 10.0461L7.61864 6L11.6648 1.95393L11.7672 1.83673C12.1086 1.38816 12.0745 0.745136 11.6648 0.33545C11.2179 -0.111481 10.4932 -0.111481 10.0463 0.335449L6.00013 4.38152L1.95372 0.335198L1.83652 0.232776Z" fill="#FF6700"/>
</svg>
