<svg width="10" height="9" viewBox="0 0 10 9" fill="none" xmlns="http://www.w3.org/2000/svg">
<path fill-rule="evenodd" clip-rule="evenodd" d="M3.81965 1.18062H9.03271C9.22175 1.18062 9.375 1.33593 9.375 1.52751C9.375 1.71909 9.22175 1.87441 9.03273 1.87441H3.81968C3.67635 2.30583 3.27373 2.61752 2.80034 2.61752C2.32696 2.61752 1.92433 2.30583 1.78101 1.87441H0.967272C0.778247 1.87441 0.625 1.71909 0.625 1.52751C0.625 1.33593 0.778247 1.18062 0.967272 1.18062H1.78099C1.92431 0.749196 2.32694 0.4375 2.80032 0.4375C3.27371 0.4375 3.67633 0.749196 3.81965 1.18062ZM2.40936 1.5275C2.40936 1.74598 2.58474 1.92373 2.80031 1.92373C3.01587 1.92373 3.19125 1.74598 3.19125 1.5275C3.19125 1.30903 3.01587 1.13128 2.80031 1.13128C2.58474 1.13128 2.40936 1.30903 2.40936 1.5275Z" fill="#000"/>
<path fill-rule="evenodd" clip-rule="evenodd" d="M8.21897 4.1531H9.03271C9.22175 4.1531 9.375 4.30841 9.375 4.49999C9.375 4.69157 9.22175 4.84688 9.03273 4.84688H8.21899C8.07567 5.2783 7.67302 5.59 7.19966 5.59C6.72629 5.59 6.32365 5.2783 6.18032 4.84688H0.967272C0.778247 4.84688 0.625 4.69157 0.625 4.49999C0.625 4.30841 0.778247 4.1531 0.967272 4.1531H6.18032C6.32365 3.72168 6.72627 3.40998 7.19963 3.40998C7.673 3.40998 8.07564 3.72168 8.21897 4.1531ZM6.8087 4.49999C6.8087 4.71846 6.98408 4.89621 7.19964 4.89621C7.41521 4.89621 7.59059 4.71846 7.59059 4.49999C7.59059 4.28151 7.41521 4.10376 7.19964 4.10376C6.98408 4.10376 6.8087 4.28151 6.8087 4.49999Z" fill="#000"/>
<path fill-rule="evenodd" clip-rule="evenodd" d="M5.28611 7.12559H9.03271C9.22175 7.12559 9.375 7.28091 9.375 7.47249C9.375 7.66407 9.22175 7.81938 9.03273 7.81938H5.28611C5.14278 8.2508 4.74016 8.5625 4.26677 8.5625C3.79339 8.5625 3.39076 8.2508 3.24744 7.81938H0.967272C0.778247 7.81938 0.625 7.66407 0.625 7.47249C0.625 7.28091 0.778247 7.12559 0.967272 7.12559H3.24744C3.39076 6.69417 3.79339 6.38248 4.26677 6.38248C4.74016 6.38248 5.14278 6.69417 5.28611 7.12559ZM3.87581 7.47252C3.87581 7.69099 4.05119 7.86874 4.26675 7.86874C4.48231 7.86874 4.65769 7.69097 4.65769 7.47249C4.65769 7.25402 4.48231 7.07629 4.26675 7.07629C4.05119 7.07629 3.87581 7.25404 3.87581 7.47252Z" fill="#000"/>
</svg>
