<svg width="23" height="22" viewBox="0 0 23 22" fill="none" xmlns="http://www.w3.org/2000/svg">
<path d="M20.6667 5.25014V1.83711C20.6667 1.33121 20.2569 0.920619 19.75 0.920619C19.2431 0.920619 18.8333 1.33121 18.8333 1.83711V4.00554L14.0639 0.787727C12.5065 -0.262576 10.4935 -0.262576 8.93608 0.787727L2.51942 5.11725C1.25533 5.97051 0.5 7.39016 0.5 8.91612V17.4175C0.5 19.9443 2.55608 22 5.08333 22H7.83333C8.34025 22 8.75 21.5894 8.75 21.0835V13.7515C8.75 13.2466 9.16067 12.8351 9.66667 12.8351H13.3333C13.8393 12.8351 14.25 13.2466 14.25 13.7515V21.0835C14.25 21.5894 14.6597 22 15.1667 22H17.9167C20.4439 22 22.5 19.9443 22.5 17.4175V8.91612C22.5 7.46714 21.818 6.11348 20.6667 5.25014ZM20.6667 17.4175C20.6667 18.9334 19.4328 20.167 17.9167 20.167H16.0833V13.7515C16.0833 12.2357 14.8495 11.0021 13.3333 11.0021H9.66667C8.1505 11.0021 6.91667 12.2357 6.91667 13.7515V20.167H5.08333C3.56717 20.167 2.33333 18.9334 2.33333 17.4175V8.91612C2.33333 8.00054 2.78617 7.1482 3.54517 6.6368L9.96183 2.30728C10.8968 1.67673 12.1032 1.67673 13.0373 2.30728L19.4539 6.6368C20.2129 7.1482 20.6658 8.00054 20.6658 8.91612L20.6667 17.4175Z" fill="#002953"/>
</svg>
