<svg width="18" height="18" viewBox="0 0 18 18" fill="none" xmlns="http://www.w3.org/2000/svg">
<path d="M8.99578 7.5534C8.57565 7.5534 8.27692 7.75558 8.27692 8.0535V12.1073C8.27692 12.3626 8.57568 12.618 8.99578 12.618C9.39721 12.618 9.72395 12.3626 9.72395 12.1073V8.0535C9.72395 7.75558 9.39721 7.5534 8.99578 7.5534Z" fill="#FF6700"/>
<path d="M8.27692 6.10131C8.27692 5.71679 8.59651 5.38286 9.00486 5.38286C9.40433 5.38286 9.72395 5.71683 9.72395 6.10131C9.72395 6.48583 9.40436 6.82989 9.00486 6.82989C8.59651 6.82989 8.27692 6.48583 8.27692 6.10131Z" fill="#FF6700"/>
<path fill-rule="evenodd" clip-rule="evenodd" d="M1.22266 9.00043C1.22266 4.70489 4.70489 1.22266 9.00043 1.22266C13.296 1.22266 16.7782 4.70489 16.7782 9.00043C16.7782 13.296 13.296 16.7782 9.00043 16.7782C4.70489 16.7782 1.22266 13.296 1.22266 9.00043ZM15.6929 9.00043C15.6929 5.30426 12.6966 2.30793 9.00043 2.30793C5.30426 2.30793 2.30793 5.30426 2.30793 9.00043C2.30793 12.6966 5.30426 15.6929 9.00043 15.6929C12.6966 15.6929 15.6929 12.6966 15.6929 9.00043Z" fill="#FF6700"/>
<path d="M8.99578 7.5534C8.57565 7.5534 8.27692 7.75558 8.27692 8.0535V12.1073C8.27692 12.3626 8.57568 12.618 8.99578 12.618C9.39721 12.618 9.72395 12.3626 9.72395 12.1073V8.0535C9.72395 7.75558 9.39721 7.5534 8.99578 7.5534Z" fill="#FF6700"/>
<path d="M8.27692 6.10131C8.27692 5.71679 8.59651 5.38286 9.00486 5.38286C9.40433 5.38286 9.72395 5.71683 9.72395 6.10131C9.72395 6.48583 9.40436 6.82989 9.00486 6.82989C8.59651 6.82989 8.27692 6.48583 8.27692 6.10131Z" fill="#FF6700"/>
<path fill-rule="evenodd" clip-rule="evenodd" d="M1.22266 9.00043C1.22266 4.70489 4.70489 1.22266 9.00043 1.22266C13.296 1.22266 16.7782 4.70489 16.7782 9.00043C16.7782 13.296 13.296 16.7782 9.00043 16.7782C4.70489 16.7782 1.22266 13.296 1.22266 9.00043ZM15.6929 9.00043C15.6929 5.30426 12.6966 2.30793 9.00043 2.30793C5.30426 2.30793 2.30793 5.30426 2.30793 9.00043C2.30793 12.6966 5.30426 15.6929 9.00043 15.6929C12.6966 15.6929 15.6929 12.6966 15.6929 9.00043Z" fill="#FF6700"/>
</svg>
