<svg xmlns="http://www.w3.org/2000/svg" version="1.1" xmlns:xlink="http://www.w3.org/1999/xlink" xmlns:svgjs="http://svgjs.dev/svgjs" width="100%" height="100%" viewBox="0 0 1000 600"><rect width="1000" height="600" x="0" y="0" fill="#191919"/><g><rect width="333.3333333333333" height="333.3333333333333" rx="13.333333333333334" ry="13.333333333333334" y="187.2577663494572" fill="#b88746" transform="matrix(0.7574124158682338,0,0,0.7574124158682338,0,31.933205784485807)" x="165.03553771972656"/><path d="M312.0089029552222 285.5420917342436L308.7581289806103 314.62490889996786Q306.0007760557163 313.60904203290164 302.3726801019084 312.44805132768306Q298.74458414810044 311.2580358548341 294.5069680740528 310.3002185230288Q290.26935200000514 309.34240119122353 285.68343871439197 308.6748315357229Q281.09752542877874 308.0072618802222 276.5116121431655 308.0072618802222L276.5116121431655 308.0072618802222Q270.18421279972455 308.0072618802222 264.5243831117842 309.34240119122353Q258.86455342384386 310.64851573459435 254.42376397638296 314.5378345970764Q249.98297452892206 318.42715345955855 247.08049776587575 325.5672462966525Q244.14899623519895 332.7073391337465 243.45240181206782 344.3172461859318L243.45240181206782 344.3172461859318Q247.22562160402805 342.6047848957345 251.34713860755386 341.385744655255Q255.4976803787101 340.1376796471451 259.7643212203882 339.3249861534921Q264.05998682969675 338.51229265983915 268.18150383322256 338.16399544827357Q272.33204560437883 337.7866734690776 276.10526539633906 337.7866734690776L276.10526539633906 337.7866734690776Q285.27709196756547 337.7866734690776 293.5491507422475 340.5440263939716Q301.82120951692957 343.3013793188656 308.0905593251096 348.6709613305013Q314.35990913328965 354.01151857450657 318.075079389989 361.993329672884Q321.8192744143188 369.9461160036309 321.8192744143188 380.24990851244536L321.8192744143188 380.24990851244536Q321.8192744143188 386.25803541195125 320.832432314883 392.1790880085658Q319.8746149830777 398.1001406051803 317.4365345021188 403.5277721520769Q314.9694292535294 408.92637893134315 310.934986552895 413.57034175221725Q306.9295686198911 418.2143045730914 300.8343674174938 421.6392271534861Q294.768190982727 425.03512496625024 286.40905790515353 426.9797843974913Q278.04992482758007 428.92444382873236 267.02051312800404 428.92444382873236L267.02051312800404 428.92444382873236Q253.14667420064256 428.92444382873236 242.87190645945856 426.16709090383836Q232.626163485905 423.40973797894435 225.28289727539777 418.47552748176554Q217.9396310648906 413.5122922169563 213.23761870875552 406.63342228853656Q208.53560635262045 399.7255275924863 205.8072781953569 391.48249358543467Q203.0499252704629 383.21043481075264 202.0050336357662 373.77738533085204Q200.9891667687 364.3443358509515 200.9891667687 354.33079101844163L200.9891667687 354.33079101844163Q200.9891667687 338.2220449835345 205.4299562161609 324.37723082380353Q209.87074566362176 310.561441431703 218.69427502328261 300.4608222963017Q227.51780438294347 290.3602031609005 240.7821231900652 284.64232393769925Q254.04644199718692 278.924444714498 271.72252548413906 278.924444714498L271.72252548413906 278.924444714498Q280.69117868195224 278.924444714498 290.7047235144621 280.4627573989125Q300.68924357934145 281.9720453156966 312.0089029552222 285.5420917342436L312.0089029552222 285.5420917342436ZM243.45240181206782 366.98558970532366L243.45240181206782 366.98558970532366Q243.45240181206782 378.21817477831297 245.48413554620026 384.7487474951672Q247.51586928033268 391.27932021202145 250.85371755783595 394.6461932571552Q254.1625410677088 398.01306630228896 258.45820667701736 398.9128340988333Q262.72484751869547 399.8416266630081 267.22368650141726 399.8416266630081L267.22368650141726 399.8416266630081Q271.72252548413906 399.8416266630081 275.1764728321642 398.30331397859356Q278.6594449478198 396.79402606180946 281.0394758935178 394.2688712779592Q283.44853160684625 391.7727412617393 284.6675718473257 388.58001682238836Q285.8866120878052 385.35826761540693 285.8866120878052 381.9913945702732L285.8866120878052 381.9913945702732Q285.8866120878052 379.4372150187924 285.3351415028264 376.215465811811Q284.7836709178476 372.99371660482956 282.6938876484542 370.14928937704417Q280.5750796114304 367.3048621492587 276.4535626079046 365.3892274856482Q272.33204560437883 363.50261758966803 265.27902707017626 363.50261758966803L265.27902707017626 363.50261758966803Q260.9833614608677 363.50261758966803 255.6428042168624 364.3443358509515Q250.2732222052267 365.15702934460444 243.45240181206782 366.98558970532366ZM445.08746254089647 281.681797639392L445.08746254089647 363.90896433649453L462.415248816283 363.90896433649453L462.415248816283 396.5618279207658L445.08746254089647 396.5618279207658L445.08746254089647 425.9639175304251L402.62422749752864 425.9639175304251L402.62422749752864 396.5618279207658L340.59829907122855 396.5618279207658L340.59829907122855 363.90896433649453L376.5019366301117 281.681797639392L445.08746254089647 281.681797639392ZM402.62422749752864 311.6643826016606L395.6002337309565 311.6643826016606L375.6892431364587 363.90896433649453L402.62422749752864 363.90896433649453L402.62422749752864 311.6643826016606Z " fill="#191919" transform="matrix(0.7574124158682338,0,0,0.7574124158682338,0,31.933205784485807)"/><path d="M581.7022098305056 340.8248425898655L581.7022098305056 340.8248425898655Q581.7022098305056 328.10616263878063 586.2944786314797 317.9481487011421Q590.8655849034169 307.7901347635036 598.6745581179766 300.6795250071566Q606.4835313325361 293.5900777798464 616.8320080315054 289.7808225532319Q627.1593222014379 285.99272985565426 638.777550642612 285.99272985565426L638.777550642612 285.99272985565426Q646.8827992636861 285.99272985565426 655.2843232912746 287.55875700437355Q663.7070098478998 289.1247841530928 672.0238837593414 293.20915225718494L672.0238837593414 293.20915225718494L667.4104524293306 317.01699742352525Q660.8712309569758 313.440530016315 654.4801471878782 311.66287757722824Q648.0679008897439 309.86406260910474 642.7137810434469 309.86406260910474L642.7137810434469 309.86406260910474Q636.2380471582023 309.86406260910474 631.1167151313095 312.0014780418162Q625.9742205753801 314.1177309454909 622.3977531681699 318.1386114624728Q618.8424482899964 322.15949197945474 616.9378206766892 327.8733748193764Q615.033193063382 333.60842018833483 615.033193063382 340.8248425898655L615.033193063382 340.8248425898655Q615.033193063382 348.04126499139625 616.9378206766892 353.77631036035467Q618.8424482899964 359.4901932002763 622.3977531681699 363.5110737172582Q625.9742205753801 367.5319542342402 631.1167151313095 369.6482071379148Q636.2380471582023 371.76446004158953 642.7137810434469 371.76446004158953L642.7137810434469 371.76446004158953Q648.0679008897439 371.76446004158953 654.4801471878782 369.9868076025028Q660.8712309569758 368.209155163416 667.4104524293306 364.6326877562058L667.4104524293306 364.6326877562058L672.0238837593414 388.44053292254614Q663.7070098478998 392.46141343952803 655.2843232912746 393.9004654140268Q646.8827992636861 395.3606799175624 638.777550642612 395.3606799175624L638.777550642612 395.3606799175624Q627.1593222014379 395.3606799175624 616.8320080315054 391.5937497490214Q606.4835313325361 387.8479821095172 598.6745581179766 380.82202246931723Q590.8655849034169 373.7749003000805 586.2944786314797 363.6592114205155Q581.7022098305056 353.54352254095045 581.7022098305056 340.8248425898655ZM692.6361870411329 393.20210195581416L692.6361870411329 278.9244451573808L724.7820686479515 278.9244451573808L724.7820686479515 323.9371444185415Q726.8559964935527 321.03787794050714 730.1361884942485 318.64651215935476Q733.4163804949443 316.2763089072391 737.3526108957792 314.5198189971891Q741.2888412966141 312.78449161617584 745.6906473362575 311.853340338559Q750.0712908468641 310.9221890609421 754.4730968865074 310.9221890609421L754.4730968865074 310.9221890609421Q759.8907043199147 310.9221890609421 764.6945984112562 312.65751644195535Q769.4984925025977 314.41400635200534 773.074959909808 318.28674916573004Q776.6302647879814 322.15949197945474 778.6830301045459 328.21197528396436Q780.7357954211103 334.28562111751074 780.7357954211103 342.8352828483565L780.7357954211103 342.8352828483565L780.7357954211103 393.20210195581416L748.5899138142918 393.20210195581416L748.5899138142918 350.79239376617335Q748.5899138142918 345.20548610047217 747.6587625366749 341.5020435190414Q746.7276112590581 337.77743840857397 745.2462342264857 335.5130478016421Q743.7436946648767 333.22749466567336 741.8602295806062 332.2963433880565Q739.955601967299 331.3863546394764 738.0298118249551 331.3863546394764L738.0298118249551 331.3863546394764Q735.7865837470599 331.3863546394764 733.6068432562749 332.23285580094625Q731.4059402364533 333.07935696241617 729.585962739293 334.6453841111354Q727.7659852421328 336.2114112598547 726.496233499928 338.3699892216029Q725.2264817577231 340.5285671833511 724.7820686479515 343.1315582548709L724.7820686479515 343.1315582548709L724.7820686479515 393.20210195581416L692.6361870411329 393.20210195581416ZM877.5332032351909 368.8651935635552L877.5332032351909 390.00656007126537Q870.5284061240276 392.3132757362708 862.4231575029535 393.83697782691655Q854.3179088818794 395.3606799175624 845.5354593316295 395.3606799175624L845.5354593316295 395.3606799175624Q835.9276711489464 395.3606799175624 827.2298717148434 392.8211764331527Q818.5320722807404 390.3028354777798 811.9082006922386 384.94871563148286Q805.2843291037368 379.5945957851859 801.3692612319386 371.36237198989136Q797.4753558891772 363.1513107236335 797.4753558891772 351.7658701018637L797.4753558891772 351.7658701018637Q797.4753558891772 345.29013621661915 799.4857961476681 339.74555360899143Q801.496236406159 334.20097100136377 804.9457286391488 329.6721897874999Q808.4163834011753 325.1222460445993 813.0509772602229 321.6304287535361Q817.7067336483072 318.1386114624728 823.0185284365308 315.7472456813204Q828.3514857537909 313.3770424292048 834.0018810066024 312.14961574507345Q839.6522762594137 310.9221890609421 845.0910462218577 310.9221890609421L845.0910462218577 310.9221890609421Q853.6407079527035 310.9221890609421 860.1799294250583 312.8056541452126Q866.7403134264499 314.71028175851984 871.078631878983 317.90582364306863Q875.4381128605529 321.1013655276174 877.681340938448 325.35503386400353Q879.9034064873064 329.5875396713529 879.9034064873064 334.34910870462096L879.9034064873064 334.34910870462096Q879.9034064873064 340.1476416606896 877.9352912868891 344.2531722938185Q875.9671760864716 348.3375403979107 872.6446590277022 351.1309942307613Q869.3433044979698 353.92444806361186 864.9838235163999 355.5116377413679Q860.6455050638667 357.11998994816065 855.7992859144516 357.9664911096305Q850.9530667650366 358.8341548001372 845.9375473833276 359.04578009050465Q840.9220280016186 359.2785679099088 836.372084258718 359.2785679099088L836.372084258718 359.2785679099088Q834.8272196390355 359.2785679099088 833.3670051355 359.23624285183536Q831.9067906319643 359.19391779376184 830.5100637155391 359.19391779376184L830.5100637155391 359.19391779376184Q831.1026145285681 363.447586130148 832.8379419095813 366.3468526081823Q834.5944318196313 369.24611908621665 837.2397479492246 371.06609658337686Q839.885064078818 372.8860740805371 843.3345563118078 373.66908765489677Q846.8052110738342 374.4521012292564 850.7414414746692 374.4521012292564L850.7414414746692 374.4521012292564Q853.7253580688506 374.4521012292564 857.11136271473 374.00768811948467Q860.4762048315728 373.56327500971304 863.9468595935992 372.7802614353534Q867.396351826589 371.99724786099375 870.8670065886155 371.00260899626664Q874.3164988216053 369.9868076025028 877.5332032351909 368.8651935635552L877.5332032351909 368.8651935635552ZM829.8328627863633 347.74498958488175L829.8328627863633 347.74498958488175Q831.61051522545 347.6603394687348 834.4039690583005 347.5122017654775Q837.1974228911512 347.36406406222034 840.3294771885897 347.0043010685956Q843.4403689569915 346.6233755459342 846.57242325443 345.967337145795Q849.7044775518685 345.29013621661915 852.2228185072414 344.2531722938185Q854.7623219916511 343.1950458419812 856.3283491403704 341.65018122229867Q857.8732137600529 340.0841540735794 857.8732137600529 337.8409259956842L857.8732137600529 337.8409259956842Q857.8732137600529 334.0528332981065 854.8681346368348 331.78844269117457Q851.8630555136168 329.52405208424267 846.5089356673199 329.52405208424267L846.5089356673199 329.52405208424267Q844.0540822990571 329.52405208424267 841.218303408133 330.22241554245534Q838.3825245172089 330.92077900066795 835.9276711489464 332.9312192591589Q833.4728177806837 334.9416595176499 831.7586529287072 338.5181269248601Q830.0656506057675 342.09459433207036 829.8328627863633 347.74498958488175ZM963.2414458340158 315.09120728118125L962.1198317950683 336.9520997761408Q954.6706215741334 333.52377007218786 947.5811743468231 331.6403049879174Q940.4705645904761 329.73567737461013 935.1164447441791 329.73567737461013L935.1164447441791 329.73567737461013Q929.444886962331 329.73567737461013 927.0746837102154 330.8149663554842Q924.683317929063 331.89425533635836 924.683317929063 334.5818965240252L924.683317929063 334.5818965240252Q924.683317929063 336.9520997761408 928.1962977491629 338.3276641635294Q931.6881150402262 339.70322855091797 938.4601243319852 341.5020435190414L938.4601243319852 341.5020435190414Q945.2321336237442 343.2796959581282 950.5862534700412 345.43827391987634Q955.9403733163382 347.59685188162456 959.7073034848792 350.79239376617335Q963.4530711243833 353.9879356507221 965.4211863248007 358.4532292774757Q967.3893015252182 362.91852290422935 967.3893015252182 369.39425678947384L967.3893015252182 369.39425678947384Q967.3893015252182 375.19278974554254 965.1672359763598 379.9966838368841Q962.9451704275014 384.8005779282256 958.3952266846007 388.20774510314186Q953.866445470737 391.6360748070949 946.9462984757207 393.4983773623286Q940.0261514807045 395.3606799175624 930.6511511174256 395.3606799175624L930.6511511174256 395.3606799175624Q922.3131146769473 395.3606799175624 913.9115906493588 394.13325323343105Q905.4889040927334 392.9058265492997 896.9392423618878 389.77377225186115L896.9392423618878 389.77377225186115L896.9392423618878 366.791265717954Q904.6000778731901 370.13494530576 912.3455635006395 372.145385564251Q920.0910491280888 374.1558258227419 927.0746837102154 374.1558258227419L927.0746837102154 374.1558258227419Q939.6452259580429 374.1558258227419 939.6452259580429 368.9498436797022L939.6452259580429 368.9498436797022Q939.6452259580429 368.06101746015884 939.0526751450141 367.32032894387265Q938.4601243319852 366.55847789854977 936.8517721251925 365.86011444033716Q935.2645824474364 365.1617509821245 932.3864784984388 364.37873740776485Q929.529537078478 363.5957238334052 925.0642434517243 362.47410979445766L925.0642434517243 362.47410979445766Q918.8847849729942 360.99273276188535 913.4248524815135 358.6436920388064Q907.9437574609962 356.29465131572755 903.9017144149774 352.90864666984805Q899.838508839922 349.5226420239685 897.5106306458798 344.9938608101047Q895.161589922801 340.4439170672041 895.161589922801 334.6453841111354L895.161589922801 334.6453841111354Q895.161589922801 329.4394019680957 897.3413304135859 325.05875845748903Q899.5422334334075 320.65695241784573 903.9652020020877 317.5460606494439Q908.4093330998046 314.41400635200534 914.9908796302328 312.65751644195535Q921.5724261606612 310.9221890609421 930.2702255947642 310.9221890609421L930.2702255947642 310.9221890609421Q935.3280700345466 310.9221890609421 939.983826422631 311.3666021707138Q944.6395828107153 311.8110152804855 948.8086010309544 312.4458911515879Q952.9564567221568 313.08076702269034 956.5752491874406 313.77913048090295Q960.1728791236875 314.4774939391156 963.2414458340158 315.09120728118125L963.2414458340158 315.09120728118125ZM1049.2459638393552 315.09120728118125L1048.1243498004078 336.9520997761408Q1040.6751395794727 333.52377007218786 1033.5856923521626 331.6403049879174Q1026.4750825958158 329.73567737461013 1021.1209627495186 329.73567737461013L1021.1209627495186 329.73567737461013Q1015.4705674967072 329.73567737461013 1013.0792017155549 330.8149663554842Q1010.7089984634391 331.89425533635836 1010.7089984634391 334.5818965240252L1010.7089984634391 334.5818965240252Q1010.7089984634391 336.9520997761408 1014.2008157545024 338.3276641635294Q1017.6926330455657 339.70322855091797 1024.4646423373247 341.5020435190414L1024.4646423373247 341.5020435190414Q1031.2366516290836 343.2796959581282 1036.5907714753807 345.43827391987634Q1041.9448913216775 347.59685188162456 1045.7118214902184 350.79239376617335Q1049.4575891297227 353.9879356507221 1051.4257043301404 358.4532292774757Q1053.4149820595944 362.91852290422935 1053.4149820595944 369.39425678947384L1053.4149820595944 369.39425678947384Q1053.4149820595944 375.19278974554254 1051.171753981699 379.9966838368841Q1048.949688432841 384.8005779282256 1044.3997446899402 388.20774510314186Q1039.8709634760762 391.6360748070949 1032.9508164810604 393.4983773623286Q1026.030669486044 395.3606799175624 1016.6556691227651 395.3606799175624L1016.6556691227651 395.3606799175624Q1008.3176326822868 395.3606799175624 999.9161086546982 394.13325323343105Q991.5145846271097 392.9058265492997 982.9437603672272 389.77377225186115L982.9437603672272 389.77377225186115L982.9437603672272 366.791265717954Q990.6045958785295 370.13494530576 998.350081505979 372.145385564251Q1006.0955671334283 374.1558258227419 1013.0792017155549 374.1558258227419L1013.0792017155549 374.1558258227419Q1025.6497439633827 374.1558258227419 1025.6497439633827 368.9498436797022L1025.6497439633827 368.9498436797022Q1025.6497439633827 368.06101746015884 1025.0571931503537 367.32032894387265Q1024.4646423373247 366.55847789854977 1022.8562901305319 365.86011444033716Q1021.2691004527759 365.1617509821245 1018.3909965037783 364.37873740776485Q1015.5340550838174 363.5957238334052 1011.0687614570639 362.47410979445766L1011.0687614570639 362.47410979445766Q1004.8893029783337 360.99273276188535 999.429370486853 358.6436920388064Q993.9694379953723 356.29465131572755 989.906232420317 352.90864666984805Q985.8430268452615 349.5226420239685 983.5151486512194 344.9938608101047Q981.1661079281405 340.4439170672041 981.1661079281405 334.6453841111354L981.1661079281405 334.6453841111354Q981.1661079281405 329.4394019680957 983.3670109479621 325.05875845748903Q985.546751438747 320.65695241784573 989.9697200074271 317.5460606494439Q994.4138511051441 314.41400635200534 1000.9953976355724 312.65751644195535Q1007.5769441660005 310.9221890609421 1016.2747436001036 310.9221890609421L1016.2747436001036 310.9221890609421Q1021.3325880398861 310.9221890609421 1025.9883444279703 311.3666021707138Q1030.6441008160548 311.8110152804855 1034.8131190362938 312.4458911515879Q1038.9609747274963 313.08076702269034 1042.5797671927799 313.77913048090295Q1046.1773971290272 314.4774939391156 1049.2459638393552 315.09120728118125L1049.2459638393552 315.09120728118125ZM1123.124352706639 363.74386153666245L1123.124352706639 312.9326293194331L1155.2490717844207 312.9326293194331L1155.2490717844207 381.96479903730153Q1155.2490717844207 390.3663230648901 1153.5560694614808 397.07484476953886Q1151.8419046095046 403.7622039451509 1148.7945004282128 409.0105111462641Q1145.7259337178843 414.2588183473773 1141.5357529686087 418.0045859868816Q1137.3244096902959 421.77151615542255 1132.2665652505134 424.1840444656117Q1127.208720810731 426.61773530483754 1121.4736754417727 427.7605118728219Q1115.759792601851 428.92445096984295 1109.7284718263782 428.92445096984295L1109.7284718263782 428.92445096984295Q1101.623223205304 428.92445096984295 1093.433324468083 428.09911233740985Q1085.2434257308619 427.27377370497675 1078.471416439103 425.34798356263275L1078.471416439103 425.34798356263275L1080.7146445169979 406.59798283607495Q1088.819893138072 408.52377297841895 1094.2798256295528 409.0528362043376Q1099.7609206500701 409.56073690121957 1102.36391172159 409.56073690121957L1102.36391172159 409.56073690121957Q1109.7919594134883 409.56073690121957 1114.236090511205 407.40215893947135Q1118.659059079885 405.26474350675994 1120.9657747448907 400.7994498800063L1120.9657747448907 400.7994498800063Q1122.0662262548014 398.55622180211117 1122.7857522420509 396.39764384036295Q1123.4841157002634 394.2390658786148 1123.928528810035 391.93235021360937Q1124.372941919807 389.62563454860395 1124.521079623064 387.1284561222678Q1124.6692173263214 384.6524402249684 1124.6692173263214 381.6050360436768L1124.6692173263214 381.6050360436768Q1123.124352706639 384.4196524055642 1120.436711518972 386.57823036731236Q1117.7702328603418 388.7368083290606 1114.4900408596461 390.2181853616329Q1111.2098488589504 391.72072492324185 1107.6122189227035 392.46141343952803Q1103.9934264574194 393.20210195581416 1100.5650967534666 393.20210195581416L1100.5650967534666 393.20210195581416Q1094.6184260941407 393.20210195581416 1089.2643062478437 391.38212445865395Q1083.9101864015468 389.5621469614937 1079.7834932393812 385.6470790896955Q1075.6568000772154 381.75317374693407 1073.2231092379895 375.63720285531423Q1070.8105809278004 369.5423944927311 1070.8105809278004 361.05622034899557L1070.8105809278004 361.05622034899557L1070.8105809278004 312.9326293194331L1099.3799951274086 312.9326293194331L1099.3799951274086 360.1673941294522Q1099.3799951274086 363.89199923991964 1100.459284108283 366.6008029566233Q1101.5385730891571 369.30960667332687 1103.295062999207 371.06609658337686Q1105.0303903802203 372.8225864934269 1107.2736184581154 373.66908765489677Q1109.4956840069738 374.5367513454034 1111.8023996719792 374.5367513454034L1111.8023996719792 374.5367513454034Q1113.9609776337275 374.5367513454034 1116.013742950292 373.817225358154Q1118.0665082668563 373.11886189994135 1119.611372886539 371.7432975125528Q1121.177400035258 370.36773312516425 1122.1508763709485 368.3572928666733Q1123.124352706639 366.3468526081823 1123.124352706639 363.74386153666245L1123.124352706639 363.74386153666245Z " fill="#b88746" transform="matrix(0.7574124158682338,0,0,0.7574124158682338,0,31.933205784485807)"/></g></svg>