<svg width="37" height="23" viewBox="0 0 37 23" fill="none" xmlns="http://www.w3.org/2000/svg">
<path fill-rule="evenodd" clip-rule="evenodd" d="M26.3465 15.5515L26.6412 15.6584L26.6425 15.6623C27.5409 15.9672 28.534 15.8134 29.2946 15.2516V3.67377C29.2888 3.57156 29.299 3.46907 29.325 3.36995L27.66 2.68538C27.6541 2.68538 27.648 2.68283 27.6408 2.67978C27.6301 2.67529 27.6168 2.66973 27.5979 2.66973L24.0684 1.23538C22.974 0.787336 21.7362 0.831605 20.6776 1.35665L16.4675 3.44297L15.5887 3.86937C14.6865 4.31052 14.0552 5.15395 13.8932 6.13465C13.7312 7.11535 14.0585 8.11294 14.7721 8.81396C15.7306 9.75267 17.1909 9.97968 18.3955 9.37727L18.9042 9.11648L22.5632 7.29877L25.4836 10.1818C26.9102 11.603 27.2576 13.7645 26.3465 15.5515ZM13.6436 21.1897L10.2515 18.1619C9.51902 17.4999 8.64452 17.0096 7.69321 16.7276C7.70527 16.6852 7.71062 16.6412 7.70907 16.5972V3.81843L11.6734 2.20674C12.7979 1.74603 14.0736 1.81316 15.1421 2.38929L14.895 2.51056C13.5502 3.17051 12.6097 4.42903 12.3682 5.8918C12.1267 7.35456 12.6137 8.84259 13.6766 9.88964C14.4549 10.6531 15.481 11.1213 16.5745 11.2118C16.5042 11.3044 16.4662 11.4169 16.4662 11.5326C16.4605 11.7486 16.5717 11.9513 16.7582 12.0646L22.1999 17.3404V17.3535C22.0599 17.8431 21.7941 18.2887 21.4281 18.647C20.7909 19.2694 19.9188 19.6003 19.0231 19.5598L13.226 13.8406C13.0951 13.9568 13.0218 14.1233 13.0252 14.297C13.0232 14.5128 13.1348 14.7141 13.3199 14.829L18.8223 20.1544C18.6705 20.5237 18.4459 20.8596 18.1616 21.1428C17.5518 21.7416 16.7252 22.0758 15.8649 22.0712C15.0359 22.0764 14.2381 21.7598 13.6436 21.1897ZM31.989 17.737C31.3504 17.737 30.8327 17.2262 30.8327 16.596V3.66212C30.8327 3.03199 31.3504 2.52116 31.989 2.52116H35.8436C36.4822 2.52116 36.9998 3.03199 36.9998 3.66212V16.5947C36.9998 17.2249 36.4822 17.7357 35.8436 17.7357L31.989 17.737ZM-0.00146484 16.596C-0.00146484 17.2262 0.516206 17.737 1.15479 17.737L5.00939 17.7357C5.64797 17.7357 6.16564 17.2249 6.16564 16.5947V3.66212C6.16564 3.03199 5.64797 2.52116 5.00939 2.52116H1.15479C0.516206 2.52116 -0.00146484 3.03199 -0.00146484 3.66212V16.596ZM16.79 11.225H16.975C17.7137 11.2216 18.4417 11.0502 19.1025 10.7242L19.5967 10.4635L22.2488 9.13994L24.4067 11.2706C25.4069 12.2829 25.6024 13.8282 24.885 15.0521C24.7631 15.294 24.6015 15.5143 24.4067 15.704C23.8659 16.2657 23.1384 16.6165 22.3571 16.6924L16.79 11.225Z" fill="currentColor"/>
<mask id="mask0_9456_4202" style="mask-type:luminance" maskUnits="userSpaceOnUse" x="-1" y="0" width="38" height="23">
<path fill-rule="evenodd" clip-rule="evenodd" d="M26.3465 15.5516L26.6412 15.6585L26.6425 15.6624C27.5409 15.9673 28.534 15.8135 29.2946 15.2517V3.6739C29.2888 3.57168 29.299 3.46919 29.325 3.37007L27.66 2.6855C27.6541 2.6855 27.6481 2.68295 27.6408 2.67991C27.6301 2.67541 27.6168 2.66985 27.5979 2.66985L24.0684 1.2355C22.974 0.787458 21.7362 0.831727 20.6776 1.35677L16.4675 3.4431L15.5887 3.86949C14.6865 4.31064 14.0552 5.15408 13.8932 6.13478C13.7312 7.11547 14.0585 8.11306 14.7721 8.81408C15.7306 9.75279 17.1909 9.9798 18.3955 9.37739L18.9042 9.1166L21.1097 8.02128L22.5632 7.29889L25.4836 10.1819C26.9102 11.6031 27.2576 13.7646 26.3465 15.5516ZM13.6436 21.1898L10.2515 18.162C9.51902 17.5 8.64452 17.0097 7.69321 16.7277C7.70527 16.6853 7.71062 16.6413 7.70907 16.5973V3.81855L11.6734 2.20686C12.7979 1.74615 14.0736 1.81328 15.1421 2.38942L14.895 2.51068C13.5502 3.17063 12.6097 4.42916 12.3682 5.89192C12.1267 7.35468 12.6137 8.84272 13.6766 9.88976C14.4549 10.6532 15.481 11.1214 16.5745 11.212C16.5042 11.3045 16.4662 11.4171 16.4662 11.5327C16.4605 11.7488 16.5717 11.9514 16.7582 12.0648L22.1999 17.3406V17.3536C22.0599 17.8432 21.7941 18.2888 21.4281 18.6471C20.7909 19.2695 19.9188 19.6004 19.0231 19.5599L13.226 13.8407C13.0951 13.9569 13.0218 14.1234 13.0252 14.2971C13.0232 14.5129 13.1348 14.7142 13.3199 14.8291L18.8223 20.1545C18.6705 20.5238 18.4459 20.8598 18.1616 21.1429C17.5518 21.7417 16.7252 22.0759 15.8649 22.0713C15.0359 22.0765 14.2381 21.7599 13.6436 21.1898ZM31.989 17.7371C31.3504 17.7371 30.8327 17.2263 30.8327 16.5962V3.66224C30.8327 3.03211 31.3504 2.52128 31.989 2.52128H35.8436C36.4822 2.52128 36.9998 3.03211 36.9998 3.66224V16.5949C36.9998 17.225 36.4822 17.7358 35.8436 17.7358L31.989 17.7371ZM-0.00146484 16.5962C-0.00146484 17.2263 0.516206 17.7371 1.15479 17.7371L5.00939 17.7358C5.64797 17.7358 6.16564 17.225 6.16564 16.5949V3.66224C6.16564 3.03211 5.64797 2.52128 5.00939 2.52128H1.15479C0.516206 2.52128 -0.00146484 3.03211 -0.00146484 3.66224V16.5962ZM16.79 11.2251H16.975C17.7137 11.2217 18.4417 11.0504 19.1025 10.7244L19.5967 10.4636L22.2488 9.14006L24.3908 11.2551L24.4067 11.2707C25.4069 12.283 25.6024 13.8284 24.885 15.0522C24.7631 15.2941 24.6015 15.5144 24.4067 15.7042C23.8659 16.2658 23.1384 16.6166 22.3571 16.6926L16.79 11.2251Z" fill="white"/>
</mask>
<g mask="url(#mask0_9456_4202)">
<mask id="mask1_9456_4202" style="mask-type:luminance" maskUnits="userSpaceOnUse" x="-1" y="0" width="38" height="23">
<path fill-rule="evenodd" clip-rule="evenodd" d="M26.3465 15.5516L26.6412 15.6585L26.6425 15.6624C27.5409 15.9673 28.534 15.8135 29.2946 15.2517V3.6739C29.2888 3.57168 29.299 3.46919 29.325 3.37007L27.66 2.6855C27.6541 2.6855 27.6481 2.68295 27.6408 2.67991C27.6301 2.67541 27.6168 2.66985 27.5979 2.66985L24.0684 1.2355C22.974 0.787458 21.7362 0.831727 20.6776 1.35677L16.4675 3.4431L15.5887 3.86949C14.6865 4.31064 14.0552 5.15408 13.8932 6.13478C13.7312 7.11547 14.0585 8.11306 14.7721 8.81408C15.7306 9.75279 17.1909 9.9798 18.3955 9.37739L18.9042 9.1166L21.1097 8.02128L22.5632 7.29889L25.4836 10.1819C26.9102 11.6031 27.2576 13.7646 26.3465 15.5516ZM13.6436 21.1898L10.2515 18.162C9.51902 17.5 8.64452 17.0097 7.69321 16.7277C7.70527 16.6853 7.71062 16.6413 7.70907 16.5973V3.81855L11.6734 2.20686C12.7979 1.74615 14.0736 1.81328 15.1421 2.38942L14.895 2.51068C13.5502 3.17063 12.6097 4.42916 12.3682 5.89192C12.1267 7.35468 12.6137 8.84272 13.6766 9.88976C14.4549 10.6532 15.481 11.1214 16.5745 11.212C16.5042 11.3045 16.4662 11.4171 16.4662 11.5327C16.4605 11.7488 16.5717 11.9514 16.7582 12.0648L22.1999 17.3406V17.3536C22.0599 17.8432 21.7941 18.2888 21.4281 18.6471C20.7909 19.2695 19.9188 19.6004 19.0231 19.5599L13.226 13.8407C13.0951 13.9569 13.0218 14.1234 13.0252 14.2971C13.0232 14.5129 13.1348 14.7142 13.3199 14.8291L18.8223 20.1545C18.6705 20.5238 18.4459 20.8598 18.1616 21.1429C17.5518 21.7417 16.7252 22.0759 15.8649 22.0713C15.0359 22.0765 14.2381 21.7599 13.6436 21.1898ZM31.989 17.7371C31.3504 17.7371 30.8327 17.2263 30.8327 16.5962V3.66224C30.8327 3.03211 31.3504 2.52128 31.989 2.52128H35.8436C36.4822 2.52128 36.9998 3.03211 36.9998 3.66224V16.5949C36.9998 17.225 36.4822 17.7358 35.8436 17.7358L31.989 17.7371ZM-0.00146484 16.5962C-0.00146484 17.2263 0.516206 17.7371 1.15479 17.7371L5.00939 17.7358C5.64797 17.7358 6.16564 17.225 6.16564 16.5949V3.66224C6.16564 3.03211 5.64797 2.52128 5.00939 2.52128H1.15479C0.516206 2.52128 -0.00146484 3.03211 -0.00146484 3.66224V16.5962ZM16.79 11.2251H16.975C17.7137 11.2217 18.4417 11.0504 19.1025 10.7244L19.5967 10.4636L22.2488 9.14006L24.3908 11.2551L24.4067 11.2707C25.4069 12.283 25.6024 13.8284 24.885 15.0522C24.7631 15.2941 24.6015 15.5144 24.4067 15.7042C23.8659 16.2658 23.1384 16.6166 22.3571 16.6926L16.79 11.2251Z" fill="white"/>
</mask>
<g mask="url(#mask1_9456_4202)">
<path fill-rule="evenodd" clip-rule="evenodd" d="M45.8083 43.7025C46.6796 51.0655 42.466 52.4812 33.1675 47.9495C19.2198 41.152 12.2466 53.8981 5.27479 50.9238C-1.69707 47.9495 -9.98111 35.6297 -4.75089 25.4328C0.479321 15.2359 2.22361 7.59082 14.8618 9.71627C27.4999 11.8417 37.0895 -5.5778 41.4489 7.59082C44.356 16.3708 45.8096 28.4076 45.8096 43.7012L45.8083 43.7025Z" fill="currentColor"/>
</g>
</g>
</svg>
