<svg width="18" height="18" viewBox="0 0 18 18" fill="none" xmlns="http://www.w3.org/2000/svg">
<g clip-path="url(#clip0_1351_119760)">
<path d="M8.95244 2.25898V0.138443C8.95244 0.0206355 9.0997 -0.0419499 9.1991 0.03168L13.558 3.23458C13.6316 3.2898 13.6316 3.39657 13.558 3.45179L9.1991 6.65469C9.0997 6.72832 8.95244 6.66205 8.95244 6.54792V4.43106C5.72008 4.48261 3.13199 7.229 3.35288 10.5203C3.54064 13.3476 5.84525 15.6412 8.67264 15.8216C11.6694 16.013 14.217 13.8704 14.6735 11.0393C14.7582 10.5129 15.2147 10.13 15.7485 10.13C16.4075 10.13 16.9192 10.7154 16.8161 11.3633C16.1755 15.4019 12.4535 18.4318 8.13882 17.9495C4.53096 17.5445 1.63363 14.6583 1.22498 11.0504C0.6838 6.33072 4.35057 2.31052 8.95244 2.25898Z" fill="#FF6700"/>
</g>
<defs>
<clipPath id="clip0_1351_119760">
<rect width="18" height="18" fill="white"/>
</clipPath>
</defs>
</svg>
