<svg width="28" height="28" viewBox="0 0 28 28" fill="none" xmlns="http://www.w3.org/2000/svg">
<path fill-rule="evenodd" clip-rule="evenodd" d="M12.4068 5.86566L8.72974 9.54277C8.24701 10.0255 7.46436 10.0255 6.98164 9.54277C6.49891 9.06005 6.49891 8.2774 6.98164 7.79467L12.7951 1.98119C13.2778 1.49846 14.0605 1.49846 14.5432 1.98119L20.3567 7.79467C20.8394 8.2774 20.8394 9.06005 20.3567 9.54277C19.874 10.0255 19.0913 10.0255 18.6086 9.54277L14.879 5.81319V18.421C14.879 19.1037 14.3256 19.6571 13.6429 19.6571C12.9603 19.6571 12.4068 19.1037 12.4068 18.421V5.86566ZM19.5794 8.57125C19.5793 8.57113 19.5795 8.57137 19.5794 8.57125V8.57125ZM1.96875 17.9069C1.96875 17.2242 2.52217 16.6708 3.20484 16.6708C3.88752 16.6708 4.44094 17.2242 4.44094 17.9069V22.5577C4.44094 23.1593 4.92863 23.647 5.53024 23.647H21.808C22.4096 23.647 22.8973 23.1593 22.8973 22.5577V17.9069C22.8973 17.2242 23.4507 16.6708 24.1334 16.6708C24.8161 16.6708 25.3695 17.2242 25.3695 17.9069V22.5577C25.3695 24.5246 23.775 26.1191 21.808 26.1191H5.53024C3.56328 26.1191 1.96875 24.5246 1.96875 22.5577V17.9069Z" fill="#B40000"/>
</svg>
