<svg width="20" height="20" viewBox="0 0 20 20" fill="none" xmlns="http://www.w3.org/2000/svg">
<path fill-rule="evenodd" clip-rule="evenodd" d="M8.62215 15.5596L10.1212 14.043L13.0994 11.0994L15.0849 9.1038C15.1921 8.99801 15.2916 8.88464 15.3827 8.76455C15.6012 8.49292 15.7784 8.19029 15.9088 7.86651C16.0963 7.38926 16.1753 6.87591 16.14 6.36403C16.1047 5.85214 15.9561 5.35466 15.7048 4.90798C15.4536 4.46129 15.1061 4.07671 14.688 3.78236C14.2698 3.48801 13.7915 3.29134 13.288 3.20674C12.6944 3.10331 12.0843 3.16189 11.521 3.37636C11.0622 3.55346 10.6436 3.82155 10.29 4.16464L10.151 4.30434L8.10591 6.35982L5.12771 9.35326L3.14224 11.3489C2.73811 11.7384 2.40246 12.1938 2.1495 12.6959C1.62956 13.7203 1.46871 14.891 1.69288 16.0186C1.91557 17.1166 2.50376 18.1056 3.36061 18.8225C4.24408 19.5725 5.36036 19.9888 6.51671 19.9998C7.67306 20.0107 8.79692 19.6155 9.69426 18.8824C9.92682 18.6918 10.1458 18.4851 10.3495 18.2637L12.5931 16.0186L15.5713 13.0252L17.3185 11.2691C18.0452 10.5543 18.596 9.67908 18.9275 8.71295C19.2589 7.74683 19.3618 6.71636 19.2279 5.70332C19.094 4.69028 18.7269 3.72257 18.1559 2.87697C17.5849 2.03137 16.8258 1.33117 15.9386 0.831942C14.9819 0.301808 13.91 0.0163415 12.8176 0.000681064C11.7253 -0.0149794 10.6459 0.239651 9.67451 0.742142C9.06016 1.06844 8.49792 1.48552 8.00666 1.97943L7.29192 2.70783L4.53209 5.47177L2.03038 7.98625L1.63326 8.38538C1.56808 8.4509 1.51645 8.52868 1.48118 8.61428C1.4459 8.69988 1.42773 8.79163 1.42773 8.88429C1.42773 8.97694 1.4459 9.06869 1.48118 9.15429C1.51645 9.23989 1.56808 9.31767 1.63326 9.38319C1.69845 9.44871 1.77592 9.50067 1.86109 9.53613C1.94625 9.57159 2.03744 9.58985 2.12963 9.58985C2.22181 9.58985 2.31313 9.57159 2.39829 9.53613C2.48346 9.50067 2.56081 9.44871 2.626 9.38319L3.4103 8.59491L5.22696 6.7789L7.28199 4.71343L8.78102 3.20674L9.06883 2.91738C9.22476 2.75739 9.39054 2.60741 9.5652 2.46835C9.5652 2.46835 9.4362 2.56815 9.49576 2.52823L9.59501 2.44841L9.82332 2.28875C9.97223 2.19895 10.1312 2.09916 10.29 2.01934L10.7466 1.79982L10.5778 1.86967C11.0666 1.66217 11.5808 1.52123 12.1067 1.4506H11.9279C12.4491 1.3911 12.9753 1.3911 13.4965 1.4506H13.3178C13.8437 1.52123 14.3579 1.66217 14.8466 1.86967L14.6778 1.79982C14.9423 1.90943 15.1979 2.03954 15.4422 2.18897C15.5614 2.26879 15.6805 2.33864 15.7996 2.42845L15.8889 2.49828C15.9485 2.49828 15.8096 2.42844 15.8195 2.43842L15.9883 2.57811C16.2078 2.76577 16.4135 2.96919 16.6038 3.18678L16.7428 3.34643L16.8122 3.43623C16.7129 3.29654 16.8817 3.51605 16.8122 3.43623L17.0604 3.79544C17.236 4.07175 17.3887 4.3621 17.517 4.66355L17.4476 4.50389C17.6556 4.99459 17.796 5.51159 17.8646 6.04052V5.85093C17.9346 6.37743 17.9346 6.91096 17.8646 7.43746V7.24788C17.796 7.7768 17.6556 8.2938 17.4476 8.7845L17.517 8.62486C17.3505 9.00299 17.1477 9.36389 16.9115 9.70248L16.8222 9.8322V9.8821C16.8817 9.81225 16.9512 9.71247 16.8222 9.8821L16.6137 10.1315C16.5343 10.2114 16.4549 10.3012 16.3755 10.371L16.0577 10.7003L14.2709 12.4964L11.8386 14.941L9.74395 16.9366L9.1979 17.4754L9.09865 17.5752L8.83059 17.8247L8.70153 17.9245L8.42365 18.114C8.25112 18.2157 8.07199 18.3057 7.88754 18.3835L8.04641 18.3236C7.69389 18.4719 7.32336 18.5726 6.94449 18.6229H7.12311C6.73422 18.6728 6.34065 18.6728 5.95175 18.6229H6.13038C5.74829 18.5726 5.37446 18.472 5.01852 18.3236L5.18733 18.3835C4.94474 18.2824 4.71202 18.1588 4.49234 18.0143L4.31372 17.8945C4.19459 17.7947 4.43285 17.9843 4.31372 17.8945L4.24416 17.8347C4.13788 17.753 4.03836 17.6629 3.94641 17.5652C3.85521 17.4736 3.76904 17.377 3.68829 17.2759L3.61873 17.206C3.54924 17.1062 3.718 17.3258 3.61873 17.206L3.49961 17.0364C3.35123 16.808 3.22172 16.5677 3.11243 16.318L3.18199 16.4876C3.03447 16.1291 2.93106 15.7538 2.87418 15.3701V15.5497C2.82454 15.1588 2.82454 14.7631 2.87418 14.3722V14.5618C2.93106 14.1781 3.03447 13.8028 3.18199 13.4443L3.11243 13.6139C3.18912 13.4264 3.28216 13.2461 3.39042 13.0751L3.53936 12.8356C3.56332 12.7973 3.58981 12.7606 3.61873 12.7258C3.68822 12.6261 3.52938 12.8456 3.61873 12.7757L3.67835 12.6959C3.77763 12.5862 3.87684 12.4664 3.98604 12.3667L4.37322 11.9775L6.15025 10.1914L8.48316 7.85654L10.4686 5.86092L11.0543 5.27221L11.1933 5.13252L11.2927 5.04271L11.3919 4.96288C11.5552 4.8542 11.728 4.76068 11.9082 4.68349L11.7493 4.75335C11.9667 4.65552 12.1976 4.59159 12.4342 4.56376H12.2556C12.5128 4.53382 12.7727 4.53382 13.03 4.56376H12.8413C13.0808 4.5928 13.3149 4.65667 13.5361 4.75335L13.3675 4.68349C13.5259 4.74383 13.676 4.82431 13.8141 4.92297L13.9233 4.99281H13.8638L14.0623 5.16245L14.2311 5.35203C14.2311 5.41189 14.1318 5.22231 14.1814 5.29216L14.251 5.39195C14.3492 5.53946 14.4324 5.69659 14.4992 5.86092L14.4296 5.69129C14.5257 5.91448 14.5925 6.14927 14.6282 6.38976V6.21014C14.6581 6.46537 14.6581 6.72323 14.6282 6.97846V6.79886C14.5925 7.03615 14.5257 7.26764 14.4296 7.48734L14.4992 7.3277C14.4392 7.48698 14.3591 7.63787 14.2609 7.77671L14.2013 7.86651C14.112 7.98625 14.2907 7.76673 14.2013 7.86651L14.0128 8.07606L13.9531 8.13593L13.5958 8.49514L12.1067 9.98187L10.1212 11.9775L8.38391 13.7237L7.52023 14.5918C7.45295 14.6561 7.39942 14.7335 7.36281 14.8192C7.32621 14.905 7.30731 14.9973 7.30731 15.0907C7.30731 15.184 7.32621 15.2763 7.36281 15.3621C7.39942 15.4479 7.45295 15.5253 7.52023 15.5896C7.58494 15.6765 7.66939 15.7465 7.7666 15.7938C7.86381 15.841 7.97093 15.8642 8.07889 15.8613C8.18684 15.8583 8.29253 15.8294 8.38706 15.7769C8.48159 15.7244 8.56221 15.6499 8.62215 15.5596Z" fill="#2680EB"/>
</svg>
