<svg width="16" height="16" viewBox="0 0 16 16" fill="none" xmlns="http://www.w3.org/2000/svg">
<path fill-rule="evenodd" clip-rule="evenodd" d="M11.8384 13.6965C12.6253 12.8636 13.2254 11.8502 13.6222 10.6847C14.3453 8.55932 14.3045 6.22021 14.2716 4.34069L14.2713 4.32849C14.2647 4.17455 14.2604 4.01208 14.258 3.83117C14.246 2.94897 13.5988 2.21911 12.7847 2.16991C11.0874 2.06725 9.77435 1.46728 8.65223 0.282096L8.64266 0.27233C8.46301 0.0939856 8.23866 0.00328737 8.0134 0.000113528C7.7798 -0.00367067 7.54509 0.0871497 7.3588 0.27233L7.349 0.282096C6.2271 1.46728 4.91407 2.06725 3.21675 2.16991C2.40267 2.21911 1.7555 2.94897 1.74345 3.83117C1.74108 4.01086 1.7368 4.17358 1.73016 4.32849L1.72959 4.35729C1.69659 6.23327 1.6556 8.56774 2.37609 10.6869C2.77231 11.8524 3.37229 12.8652 4.15957 13.6981C5.05621 14.6461 6.23059 15.399 7.64983 15.9355C7.69612 15.9528 7.74399 15.9672 7.79276 15.9778C7.8618 15.9924 7.9314 16 8.00067 16H8.0134C8.07838 15.999 8.14393 15.9916 8.20836 15.9778C8.25713 15.9672 8.30567 15.9528 8.35219 15.9352C9.76974 15.3978 10.9427 14.6445 11.8384 13.6965ZM10.4926 7.04054C10.7437 6.76463 10.7437 6.31656 10.4926 6.04028C10.2419 5.76382 9.83476 5.76382 9.58372 6.04028L7.04768 8.83117L6.3594 8.07372C6.10835 7.79744 5.70119 7.79744 5.45048 8.07372C5.19943 8.35017 5.19943 8.79769 5.45048 9.07397L6.59289 10.3317C6.71858 10.4699 6.88305 10.5389 7.04768 10.5389C7.21215 10.5389 7.37678 10.4699 7.50231 10.3317L10.4926 7.04054Z" fill="#00846F"/>
</svg>
