<svg width="12" height="12" viewBox="0 0 12 12" fill="none" xmlns="http://www.w3.org/2000/svg">
<g clip-path="url(#clip0_1351_119766)">
<path d="M5.7051 7.39215C5.7051 7.60964 5.87331 7.69664 6.12562 7.69664C6.29382 7.69664 6.50408 7.60964 6.50408 7.39215C6.50408 6.95716 6.54613 6.47868 6.54613 5.9567C6.58818 5.43472 6.58819 4.91273 6.58819 4.52125C6.58819 4.26026 6.37793 4.08626 6.08357 4.08626C5.83126 4.04276 5.57895 4.21676 5.57895 4.47775C5.57895 4.91273 5.621 5.39122 5.621 5.9132C5.66305 6.43518 5.7051 6.95716 5.7051 7.39215Z" fill="#B40000"/>
<path d="M6.12562 8.17512C5.83126 8.17512 5.57895 8.43611 5.57895 8.7406C5.57895 9.04509 5.78921 9.30608 6.12562 9.30608C6.41998 9.30608 6.63024 9.04509 6.63024 8.7406C6.63024 8.43611 6.37793 8.17512 6.12562 8.17512Z" fill="#B40000"/>
<path d="M11.8105 8.83366L7.26316 1.16815C7.01053 0.732612 6.50526 0.427734 6 0.427734C5.49474 0.427734 4.98947 0.689058 4.73684 1.16815L0.189474 8.83366C-0.0631579 9.31275 -0.0631579 9.87895 0.189474 10.358C0.442105 10.8371 0.947368 11.0985 1.45263 11.142H10.5053C11.0526 11.142 11.5158 10.8371 11.8105 10.358C12.0632 9.87895 12.0632 9.31275 11.8105 8.83366ZM11.0526 9.92251C10.9263 10.1403 10.7158 10.2709 10.5053 10.2709H1.49474C1.28421 10.2709 1.07368 10.1403 0.947368 9.92251C0.821053 9.70474 0.821053 9.48697 0.947368 9.2692L5.45263 1.64725C5.57895 1.42948 5.78947 1.29881 6 1.29881C6.21053 1.29881 6.42105 1.42948 6.54737 1.60369L11.0526 9.2692C11.1789 9.48697 11.1789 9.70474 11.0526 9.92251Z" fill="#B40000"/>
</g>
<defs>
<clipPath id="clip0_1351_119766">
<rect width="12" height="12" fill="white"/>
</clipPath>
</defs>
</svg>
