<svg xmlns="http://www.w3.org/2000/svg" viewBox="0 0 395.52 88.0803404255319" height="88.0803404255319" width="395.52"><g><svg viewBox="0 0 395.52 88.0803404255319" height="88.0803404255319" width="395.52"><g><svg viewBox="0 0 395.52 88.0803404255319" height="88.0803404255319" width="395.52"><g id="textblocktransform"><svg viewBox="0 0 395.52 88.0803404255319" height="88.0803404255319" width="395.52" id="textblock"><g><svg viewBox="0 0 395.52 88.0803404255319" height="88.0803404255319" width="395.52"><g transform="matrix(1,0,0,1,0,0)"><svg width="395.52" viewBox="0.6 -38.7 176.24 39.25" height="88.0803404255319" data-palette-color="#000000"><g class="wordmark-text-0" data-fill-palette-color="primary" id="text-0" fill="#000000"><path d="M23.45-14.4L25.2-6.25 25.85-6.25 27.45-13.1 30.05-25.45 36.15-24.7 32.5-12.3 29.45-0.6 21.25 0.15 18.5-12 18.25-12.8 14.9-0.6 6.95 0.15 4.05-12 0.6-24.15 7.15-25.4 9.2-14.4 11-6.25 11.65-6.25 15.95-20.5 14.9-24.15 21.35-25.4 23.45-14.4ZM48.45-5.1L48.45-5.1Q49.9-5.1 51.5-5.85 53.1-6.6 54-7.35L54-7.35 54.9-8.1 57.2-5.3Q56.7-4.45 55.65-3.35 54.6-2.25 53.52-1.48 52.45-0.7 50.67-0.08 48.9 0.55 47 0.55L47 0.55Q42.95 0.55 40.4-2.53 37.85-5.6 37.85-10.45L37.85-10.45Q37.85-16.55 41.4-21.15 44.95-25.75 49.7-25.75L49.7-25.75Q53.35-25.75 55.37-23.7 57.4-21.65 57.4-17.95L57.4-17.95Q57.4-15.75 56.65-12.95L56.65-12.95 55.65-11.9 43.15-10.75Q44-5.1 48.45-5.1ZM48.45-20.6L48.45-20.6Q46.25-20.6 44.75-18.82 43.25-17.05 43-14.3L43-14.3 51.5-15.35Q51.65-16.5 51.65-17.25L51.65-17.25Q51.65-20.6 48.45-20.6ZM70.75-5.1L70.75-5.1Q72.2-5.1 73.8-5.85 75.4-6.6 76.3-7.35L76.3-7.35 77.2-8.1 79.5-5.3Q79-4.45 77.95-3.35 76.9-2.25 75.82-1.48 74.75-0.7 72.97-0.08 71.2 0.55 69.3 0.55L69.3 0.55Q65.25 0.55 62.7-2.53 60.15-5.6 60.15-10.45L60.15-10.45Q60.15-16.55 63.7-21.15 67.25-25.75 72-25.75L72-25.75Q75.65-25.75 77.67-23.7 79.7-21.65 79.7-17.95L79.7-17.95Q79.7-15.75 78.95-12.95L78.95-12.95 77.95-11.9 65.45-10.75Q66.3-5.1 70.75-5.1ZM70.75-20.6L70.75-20.6Q68.55-20.6 67.05-18.82 65.55-17.05 65.3-14.3L65.3-14.3 73.8-15.35Q73.95-16.5 73.95-17.25L73.95-17.25Q73.95-20.6 70.75-20.6ZM105.34-3.3L99.64 0.5 90.24-13.35 90.24-13 90.79-1.25 84.04 0 84.64-12.15 84.04-37.45 90.89-38.7 90.24-14.55 100.24-25.5 104.94-22.3 96.19-14.1 105.34-3.3ZM117.14-5.1L117.14-5.1Q118.59-5.1 120.19-5.85 121.79-6.6 122.69-7.35L122.69-7.35 123.59-8.1 125.89-5.3Q125.39-4.45 124.34-3.35 123.29-2.25 122.22-1.48 121.14-0.7 119.37-0.08 117.59 0.55 115.69 0.55L115.69 0.55Q111.64 0.55 109.09-2.53 106.54-5.6 106.54-10.45L106.54-10.45Q106.54-16.55 110.09-21.15 113.64-25.75 118.39-25.75L118.39-25.75Q122.04-25.75 124.07-23.7 126.09-21.65 126.09-17.95L126.09-17.95Q126.09-15.75 125.34-12.95L125.34-12.95 124.34-11.9 111.84-10.75Q112.69-5.1 117.14-5.1ZM117.14-20.6L117.14-20.6Q114.94-20.6 113.44-18.82 111.94-17.05 111.69-14.3L111.69-14.3 120.19-15.35Q120.34-16.5 120.34-17.25L120.34-17.25Q120.34-20.6 117.14-20.6ZM144.94-12.65Q144.94-16.1 144.34-17.25 143.74-18.4 141.54-18.4 139.34-18.4 136.54-16.65L136.54-16.65 136.54-13 137.09-1.25 130.39 0 130.99-12.15Q130.79-18.85 129.89-24.15L129.89-24.15 135.94-25.45Q136.29-22.55 136.44-19.8L136.44-19.8Q137.19-20.8 138.14-21.78 139.09-22.75 141.14-23.98 143.19-25.2 145.46-25.2 147.74-25.2 149.29-23.43 150.84-21.65 150.84-18.6L150.84-18.6 150.54-13 151.09-1 144.34 0.25 144.94-12.65ZM169.78-4.9L169.78-4.9Q165.88 0 163.03 0L163.03 0Q159.49 0 157.21-2.9 154.94-5.8 154.94-10.35L154.94-10.35Q154.94-16.6 158.41-20.9 161.88-25.2 166.94-25.2L166.94-25.2 169.74-24.8 169.74-25.75 169.13-37.45 175.99-38.7 175.34-13 175.34-8.6Q175.34-5.6 176.84-1.7L176.84-1.7 171.44 0.55Q169.99-2.45 169.78-4.9ZM160.53-12.95Q160.53-9.75 161.71-7.95 162.88-6.15 165.11-6.15 167.34-6.15 169.74-7.95L169.74-7.95 169.74-18.75Q166.74-19.35 165.28-19.35L165.28-19.35Q163.03-19.35 161.78-17.75 160.53-16.15 160.53-12.95Z" fill="#000000" data-fill-palette-color="primary"/></g></svg></g></svg></g></svg></g></svg></g></svg></g><defs/></svg>